<svg width="205" height="165" viewBox="0 0 205 165" fill="none" xmlns="http://www.w3.org/2000/svg">
<g filter="url(#filter0_d_0_1)">
<mask id="path-1-outside-1_0_1" maskUnits="userSpaceOnUse" x="29" y="59" width="148" height="77" fill="black">
<rect fill="white" x="29" y="59" width="148" height="77"/>
<path d="M77.9176 85.2784C77.6098 84.0237 77.1245 82.9228 76.4616 81.9759C75.7988 81.0052 74.9702 80.1884 73.9759 79.5256C73.0052 78.839 71.8688 78.33 70.5668 77.9986C69.2884 77.6435 67.8797 77.4659 66.3409 77.4659C63.0265 77.4659 60.1974 78.259 57.8537 79.8452C55.5336 81.4313 53.7581 83.7159 52.527 86.6989C51.3196 89.6818 50.7159 93.2803 50.7159 97.4943C50.7159 101.756 51.2959 105.402 52.456 108.432C53.616 111.462 55.3442 113.782 57.6406 115.392C59.937 117.002 62.7898 117.807 66.1989 117.807C69.2055 117.807 71.7031 117.369 73.6918 116.493C75.7041 115.617 77.2074 114.374 78.2017 112.764C79.196 111.154 79.6932 109.26 79.6932 107.082L83.1023 107.438H66.483V93.375H98.7273V103.46C98.7273 110.089 97.3187 115.759 94.5014 120.47C91.7079 125.158 87.849 128.756 82.9247 131.266C78.0241 133.751 72.4015 134.994 66.0568 134.994C58.9782 134.994 52.7637 133.491 47.4134 130.484C42.063 127.478 37.8845 123.193 34.8778 117.629C31.8949 112.066 30.4034 105.449 30.4034 97.7784C30.4034 91.7652 31.3149 86.4384 33.1378 81.7983C34.9844 77.1581 37.5412 73.2401 40.8082 70.044C44.0753 66.8243 47.8513 64.3977 52.1364 62.7642C56.4214 61.107 61.0142 60.2784 65.9148 60.2784C70.2235 60.2784 74.2244 60.8939 77.9176 62.125C81.6345 63.3324 84.9134 65.0606 87.7543 67.3097C90.6188 69.535 92.9271 72.1747 94.679 75.2287C96.4309 78.2827 97.4962 81.6326 97.875 85.2784H77.9176ZM126.852 61.2727L138.784 82.4375H139.352L151.426 61.2727H173.443L151.71 97.6364L174.295 134H151.71L139.352 112.409H138.784L126.426 134H103.983L126.284 97.6364L104.693 61.2727H126.852Z"/>
</mask>
<path d="M77.9176 85.2784C77.6098 84.0237 77.1245 82.9228 76.4616 81.9759C75.7988 81.0052 74.9702 80.1884 73.9759 79.5256C73.0052 78.839 71.8688 78.33 70.5668 77.9986C69.2884 77.6435 67.8797 77.4659 66.3409 77.4659C63.0265 77.4659 60.1974 78.259 57.8537 79.8452C55.5336 81.4313 53.7581 83.7159 52.527 86.6989C51.3196 89.6818 50.7159 93.2803 50.7159 97.4943C50.7159 101.756 51.2959 105.402 52.456 108.432C53.616 111.462 55.3442 113.782 57.6406 115.392C59.937 117.002 62.7898 117.807 66.1989 117.807C69.2055 117.807 71.7031 117.369 73.6918 116.493C75.7041 115.617 77.2074 114.374 78.2017 112.764C79.196 111.154 79.6932 109.26 79.6932 107.082L83.1023 107.438H66.483V93.375H98.7273V103.46C98.7273 110.089 97.3187 115.759 94.5014 120.47C91.7079 125.158 87.849 128.756 82.9247 131.266C78.0241 133.751 72.4015 134.994 66.0568 134.994C58.9782 134.994 52.7637 133.491 47.4134 130.484C42.063 127.478 37.8845 123.193 34.8778 117.629C31.8949 112.066 30.4034 105.449 30.4034 97.7784C30.4034 91.7652 31.3149 86.4384 33.1378 81.7983C34.9844 77.1581 37.5412 73.2401 40.8082 70.044C44.0753 66.8243 47.8513 64.3977 52.1364 62.7642C56.4214 61.107 61.0142 60.2784 65.9148 60.2784C70.2235 60.2784 74.2244 60.8939 77.9176 62.125C81.6345 63.3324 84.9134 65.0606 87.7543 67.3097C90.6188 69.535 92.9271 72.1747 94.679 75.2287C96.4309 78.2827 97.4962 81.6326 97.875 85.2784H77.9176ZM126.852 61.2727L138.784 82.4375H139.352L151.426 61.2727H173.443L151.71 97.6364L174.295 134H151.71L139.352 112.409H138.784L126.426 134H103.983L126.284 97.6364L104.693 61.2727H126.852Z" fill="url(#paint0_linear_0_1)"/>
<path d="M77.9176 85.2784L76.9464 85.5166L77.1333 86.2784H77.9176V85.2784ZM76.4616 81.9759L75.6358 82.5399L75.6424 82.5493L76.4616 81.9759ZM73.9759 79.5256L73.3984 80.342L73.4097 80.35L73.4212 80.3576L73.9759 79.5256ZM70.5668 77.9986L70.2991 78.9621L70.3096 78.965L70.3201 78.9677L70.5668 77.9986ZM57.8537 79.8452L57.2932 79.017L57.2893 79.0197L57.8537 79.8452ZM52.527 86.6989L51.6026 86.3174L51.6 86.3237L52.527 86.6989ZM52.456 108.432L51.5221 108.789L51.5221 108.789L52.456 108.432ZM57.6406 115.392L57.0666 116.211L57.0666 116.211L57.6406 115.392ZM73.6918 116.493L73.2926 115.576L73.2887 115.578L73.6918 116.493ZM78.2017 112.764L77.3509 112.239L77.3509 112.239L78.2017 112.764ZM79.6932 107.082L79.7968 106.088L78.6932 105.973V107.082H79.6932ZM83.1023 107.438V108.438L83.2059 106.443L83.1023 107.438ZM66.483 107.438H65.483V108.438H66.483V107.438ZM66.483 93.375V92.375H65.483V93.375H66.483ZM98.7273 93.375H99.7273V92.375H98.7273V93.375ZM94.5014 120.47L93.6432 119.957L93.6424 119.958L94.5014 120.47ZM82.9247 131.266L83.3771 132.157L83.3788 132.157L82.9247 131.266ZM47.4134 130.484L46.9235 131.356L46.9235 131.356L47.4134 130.484ZM34.8778 117.629L33.9965 118.102L33.9981 118.105L34.8778 117.629ZM33.1378 81.7983L32.2086 81.4285L32.207 81.4326L33.1378 81.7983ZM40.8082 70.044L41.5075 70.7589L41.5102 70.7563L40.8082 70.044ZM52.1364 62.7642L52.4926 63.6986L52.4971 63.6969L52.1364 62.7642ZM77.9176 62.125L77.6014 63.0737L77.6087 63.0761L77.9176 62.125ZM87.7543 67.3097L87.1335 68.0937L87.1408 68.0994L87.7543 67.3097ZM94.679 75.2287L95.5464 74.7311L95.5464 74.7311L94.679 75.2287ZM97.875 85.2784V86.2784H98.9843L98.8696 85.1751L97.875 85.2784ZM78.8888 85.0402C78.555 83.6793 78.0226 82.462 77.2809 81.4024L75.6424 82.5493C76.2265 83.3837 76.6647 84.368 76.9464 85.5166L78.8888 85.0402ZM77.2875 81.4119C76.551 80.3335 75.6298 79.4263 74.5306 78.6935L73.4212 80.3576C74.3106 80.9506 75.0465 81.6769 75.6358 82.5398L77.2875 81.4119ZM74.5533 78.7092C73.4705 77.9433 72.2189 77.3872 70.8134 77.0295L70.3201 78.9677C71.5188 79.2728 72.5399 79.7347 73.3984 80.342L74.5533 78.7092ZM70.8344 77.0351C69.4563 76.6522 67.9561 76.4659 66.3409 76.4659V78.4659C67.8034 78.4659 69.1205 78.6347 70.2991 78.9621L70.8344 77.0351ZM66.3409 76.4659C62.8617 76.4659 59.8292 77.3007 57.2932 79.017L58.4142 80.6733C60.5657 79.2173 63.1913 78.4659 66.3409 78.4659V76.4659ZM57.2893 79.0197C54.7858 80.7313 52.8966 83.1819 51.6026 86.3174L53.4514 87.0804C54.6195 84.2499 56.2815 82.1314 58.4181 80.6707L57.2893 79.0197ZM51.6 86.3237C50.332 89.4565 49.7159 93.1895 49.7159 97.4943H51.7159C51.7159 93.3711 52.3072 89.9072 53.4539 87.0741L51.6 86.3237ZM49.7159 97.4943C49.7159 101.842 50.307 105.615 51.5221 108.789L53.3899 108.074C52.2848 105.188 51.7159 101.67 51.7159 97.4943H49.7159ZM51.5221 108.789C52.7419 111.976 54.5824 114.469 57.0666 116.211L58.2147 114.573C56.106 113.095 54.4901 110.948 53.3899 108.074L51.5221 108.789ZM57.0666 116.211C59.5646 117.962 62.6294 118.807 66.1989 118.807V116.807C62.9502 116.807 60.3094 116.042 58.2147 114.573L57.0666 116.211ZM66.1989 118.807C69.2945 118.807 71.9404 118.357 74.0949 117.408L73.2887 115.578C71.4659 116.381 69.1165 116.807 66.1989 116.807V118.807ZM74.0909 117.41C76.2593 116.466 77.9347 115.1 79.0525 113.29L77.3509 112.239C76.4801 113.649 75.1488 114.768 73.2926 115.576L74.0909 117.41ZM79.0525 113.29C80.1584 111.499 80.6932 109.417 80.6932 107.082H78.6932C78.6932 109.103 78.2337 110.809 77.3509 112.239L79.0525 113.29ZM79.5896 108.077L82.9987 108.432L83.2059 106.443L79.7968 106.088L79.5896 108.077ZM83.1023 106.438H66.483V108.438H83.1023V106.438ZM67.483 107.438V93.375H65.483V107.438H67.483ZM66.483 94.375H98.7273V92.375H66.483V94.375ZM97.7273 93.375V103.46H99.7273V93.375H97.7273ZM97.7273 103.46C97.7273 109.946 96.3501 115.43 93.6432 119.957L95.3597 120.983C98.2872 116.088 99.7273 110.232 99.7273 103.46H97.7273ZM93.6424 119.958C90.9467 124.482 87.2292 127.95 82.4707 130.375L83.3788 132.157C88.4688 129.563 92.469 125.834 95.3604 120.982L93.6424 119.958ZM82.4723 130.374C77.7322 132.778 72.2687 133.994 66.0568 133.994V135.994C72.5343 135.994 78.3161 134.725 83.3771 132.157L82.4723 130.374ZM66.0568 133.994C59.1232 133.994 53.0824 132.523 47.9032 129.613L46.9235 131.356C52.445 134.459 58.8332 135.994 66.0568 135.994V133.994ZM47.9032 129.613C42.7229 126.701 38.6772 122.556 35.7576 117.154L33.9981 118.105C37.0917 123.829 41.4031 128.254 46.9235 131.356L47.9032 129.613ZM35.7592 117.157C32.8692 111.767 31.4034 105.319 31.4034 97.7784H29.4034C29.4034 105.579 30.9206 112.365 33.9965 118.102L35.7592 117.157ZM31.4034 97.7784C31.4034 91.8652 32.2997 86.6663 34.0685 82.1639L32.207 81.4326C30.33 86.2106 29.4034 91.6651 29.4034 97.7784H31.4034ZM34.0669 82.168C35.8667 77.6456 38.3493 73.8484 41.5075 70.7589L40.1089 69.3292C36.7331 72.6317 34.1021 76.6707 32.2087 81.4285L34.0669 82.168ZM41.5102 70.7563C44.6786 67.6337 48.3369 65.2828 52.4926 63.6986L51.7802 61.8298C47.3657 63.5127 43.472 66.0149 40.1063 69.3318L41.5102 70.7563ZM52.4971 63.6969C56.6596 62.0871 61.1293 61.2784 65.9148 61.2784V59.2784C60.8991 59.2784 56.1832 60.1269 51.7757 61.8315L52.4971 63.6969ZM65.9148 61.2784C70.1274 61.2784 74.0204 61.88 77.6014 63.0737L78.2338 61.1763C74.4284 59.9078 70.3196 59.2784 65.9148 59.2784V61.2784ZM77.6087 63.0761C81.2214 64.2496 84.3929 65.924 87.1336 68.0937L88.375 66.5256C85.4338 64.1972 82.0475 62.4151 78.2266 61.1739L77.6087 63.0761ZM87.1408 68.0994C89.9057 70.2473 92.1265 72.7887 93.8116 75.7263L95.5464 74.7311C93.7277 71.5607 91.332 68.8228 88.3678 66.52L87.1408 68.0994ZM93.8116 75.7263C95.4911 78.6542 96.5154 81.8689 96.8804 85.3817L98.8696 85.1751C98.477 81.3962 97.3706 77.9112 95.5464 74.7311L93.8116 75.7263ZM97.875 84.2784H77.9176V86.2784H97.875V84.2784ZM126.852 61.2727L127.723 60.7816L127.436 60.2727H126.852V61.2727ZM138.784 82.4375L137.913 82.9286L138.2 83.4375H138.784V82.4375ZM139.352 82.4375V83.4375H139.933L140.221 82.933L139.352 82.4375ZM151.426 61.2727V60.2727H150.845L150.558 60.7772L151.426 61.2727ZM173.443 61.2727L174.302 61.7857L175.206 60.2727H173.443V61.2727ZM151.71 97.6364L150.852 97.1233L150.539 97.6464L150.861 98.164L151.71 97.6364ZM174.295 134V135H176.094L175.145 133.472L174.295 134ZM151.71 134L150.842 134.497L151.13 135H151.71V134ZM139.352 112.409L140.22 111.912L139.932 111.409H139.352V112.409ZM138.784 112.409V111.409H138.204L137.916 111.912L138.784 112.409ZM126.426 134V135H127.006L127.294 134.497L126.426 134ZM103.983 134L103.13 133.477L102.197 135H103.983V134ZM126.284 97.6364L127.137 98.1592L127.452 97.6447L127.144 97.1258L126.284 97.6364ZM104.693 61.2727V60.2727H102.936L103.833 61.7833L104.693 61.2727ZM125.981 61.7638L137.913 82.9286L139.655 81.9464L127.723 60.7816L125.981 61.7638ZM138.784 83.4375H139.352V81.4375H138.784V83.4375ZM140.221 82.933L152.295 61.7682L150.558 60.7772L138.484 81.942L140.221 82.933ZM151.426 62.2727H173.443V60.2727H151.426V62.2727ZM172.585 60.7597L150.852 97.1233L152.569 98.1494L174.302 61.7857L172.585 60.7597ZM150.861 98.164L173.446 134.528L175.145 133.472L152.56 97.1088L150.861 98.164ZM174.295 133H151.71V135H174.295V133ZM152.578 133.503L140.22 111.912L138.484 112.906L150.842 134.497L152.578 133.503ZM139.352 111.409H138.784V113.409H139.352V111.409ZM137.916 111.912L125.558 133.503L127.294 134.497L139.652 112.906L137.916 111.912ZM126.426 133H103.983V135H126.426V133ZM104.835 134.523L127.137 98.1592L125.432 97.1136L103.13 133.477L104.835 134.523ZM127.144 97.1258L105.553 60.7622L103.833 61.7833L125.424 98.1469L127.144 97.1258ZM104.693 62.2727H126.852V60.2727H104.693V62.2727Z" fill="white" mask="url(#path-1-outside-1_0_1)"/>
</g>
<path d="M28.8352 37V35.8636L45.1705 11.0057V10.8636H29.9006V9.72727H46.5909V10.8636L30.2557 35.7216V35.8636H47.3011V37H28.8352ZM56.1213 25.9915V23.9318H56.5474L71.036 9.72727H72.6696L60.2406 21.9432L60.0985 22.0852L56.1213 25.9915ZM55.269 37V0.636363H56.4054V37H55.269ZM71.6042 37L59.6724 21.9432L60.5247 21.233L73.0957 37H71.6042ZM86.4524 37.5682C84.9609 37.5682 83.5819 37.2604 82.3153 36.6449C81.0606 36.0294 80.0485 35.1297 79.2791 33.946C78.5215 32.7623 78.1428 31.3182 78.1428 29.6136C78.1428 28.6903 78.2907 27.8262 78.5866 27.0213C78.8826 26.2045 79.4034 25.4647 80.1491 24.8018C80.8949 24.139 81.9366 23.5708 83.2741 23.0973C84.6236 22.6238 86.3459 22.2628 88.4411 22.0142C89.6958 21.8722 90.8795 21.7064 91.9922 21.517C93.1049 21.3277 94.0104 21.0436 94.7088 20.6648C95.4072 20.286 95.7564 19.7415 95.7564 19.0312V17.3977C95.7564 15.3026 95.0521 13.6217 93.6435 12.3551C92.2348 11.0767 90.3587 10.4375 88.0149 10.4375C86.0973 10.4375 84.4223 10.8636 82.9901 11.7159C81.5578 12.5563 80.5575 13.7401 79.9893 15.267L78.924 14.8409C79.3501 13.7045 80.0071 12.7221 80.8949 11.8935C81.7827 11.0649 82.8362 10.4257 84.0554 9.97585C85.2746 9.52604 86.5945 9.30113 88.0149 9.30113C89.3999 9.30113 90.6368 9.50828 91.7259 9.92258C92.8267 10.325 93.7618 10.8932 94.5312 11.6271C95.3007 12.3492 95.8866 13.2015 96.2891 14.1839C96.6915 15.1664 96.8928 16.2377 96.8928 17.3977V37H95.7564V31.4602H95.6143C95.0462 32.6913 94.3063 33.7685 93.3949 34.6918C92.4953 35.6032 91.4536 36.3134 90.2699 36.8224C89.098 37.3196 87.8255 37.5682 86.4524 37.5682ZM86.4524 36.4318C88.1806 36.4318 89.7491 35.9702 91.1577 35.0469C92.5663 34.1117 93.6849 32.8156 94.5135 31.1584C95.3421 29.4893 95.7564 27.554 95.7564 25.3523V21.233C95.425 21.4815 95.0225 21.7005 94.549 21.8899C94.0874 22.0793 93.5606 22.2509 92.9688 22.4048C92.3887 22.5469 91.7554 22.6712 91.0689 22.7777C90.3823 22.8842 89.6484 22.9848 88.8672 23.0795C86.4287 23.3636 84.5111 23.7957 83.1143 24.3757C81.7176 24.9557 80.7292 25.6837 80.1491 26.5597C79.5691 27.4356 79.2791 28.4536 79.2791 29.6136C79.2791 31.6733 79.9657 33.3246 81.3388 34.5675C82.7237 35.8104 84.4283 36.4318 86.4524 36.4318Z" fill="white"/>
<defs>
<filter id="filter0_d_0_1" x="0.403412" y="30.2784" width="203.892" height="134.716" filterUnits="userSpaceOnUse" color-interpolation-filters="sRGB">
<feFlood flood-opacity="0" result="BackgroundImageFix"/>
<feColorMatrix in="SourceAlpha" type="matrix" values="0 0 0 0 0 0 0 0 0 0 0 0 0 0 0 0 0 0 127 0" result="hardAlpha"/>
<feOffset/>
<feGaussianBlur stdDeviation="15"/>
<feComposite in2="hardAlpha" operator="out"/>
<feColorMatrix type="matrix" values="0 0 0 0 0.274876 0 0 0 0 0.965833 0 0 0 0 0.260775 0 0 0 1 0"/>
<feBlend mode="normal" in2="BackgroundImageFix" result="effect1_dropShadow_0_1"/>
<feBlend mode="normal" in="SourceGraphic" in2="effect1_dropShadow_0_1" result="shape"/>
</filter>
<linearGradient id="paint0_linear_0_1" x1="102" y1="37" x2="102" y2="158" gradientUnits="userSpaceOnUse">
<stop stop-color="#03A600"/>
<stop offset="1" stop-color="#12FF0D"/>
</linearGradient>
</defs>
</svg>
