<svg width="96" height="93" viewBox="0 0 96 93" fill="none" xmlns="http://www.w3.org/2000/svg">
<g filter="url(#filter0_bd_0_1)">
<path d="M4 5C4 2.23858 6.23858 0 9 0H87C89.7614 0 92 2.23858 92 5V80C92 82.7614 89.7614 85 87 85H9C6.23858 85 4 82.7614 4 80V5Z" fill="url(#paint0_linear_0_1)" fill-opacity="0.2" shape-rendering="crispEdges"/>
</g>
<path d="M23.715 70.6045C23.1611 71.1612 22.4088 71.475 21.6235 71.477C20.8381 71.479 20.0842 71.1689 19.5275 70.615C18.9708 70.0611 18.657 69.3087 18.655 68.5234C18.6531 67.7381 18.9632 66.9841 19.5171 66.4275L55.7117 30.059C56.2656 29.5023 57.018 29.1885 57.8033 29.1865C58.5886 29.1846 59.3425 29.4946 59.8992 30.0486C60.4559 30.6025 60.7697 31.3548 60.7717 32.1401C60.7737 32.9254 60.4636 33.6794 59.9097 34.2361L23.715 70.6045Z" fill="url(#paint1_linear_0_1)"/>
<path d="M23.715 70.6045C23.1611 71.1612 22.4088 71.475 21.6235 71.477C20.8381 71.479 20.0842 71.1689 19.5275 70.615C18.9708 70.0611 18.657 69.3087 18.655 68.5234C18.6531 67.7381 18.9632 66.9841 19.5171 66.4275L55.7117 30.059C56.2656 29.5023 57.018 29.1885 57.8033 29.1865C58.5886 29.1846 59.3425 29.4946 59.8992 30.0486C60.4559 30.6025 60.7697 31.3548 60.7717 32.1401C60.7737 32.9254 60.4636 33.6794 59.9097 34.2361L23.715 70.6045Z" fill="url(#paint2_linear_0_1)"/>
<g filter="url(#filter1_ii_0_1)">
<path fill-rule="evenodd" clip-rule="evenodd" d="M67.4325 25.2057C67.35 24.8265 67.1632 24.478 66.8931 24.1994C66.623 23.9208 66.2804 23.7233 65.904 23.6291C64.9302 23.3629 63.9849 23.0018 63.0816 22.5508C62.8883 22.4607 62.7246 22.3173 62.6099 22.1375C62.4952 21.9576 62.4343 21.7487 62.4343 21.5353C62.4343 21.322 62.4952 21.1131 62.6099 20.9332C62.7246 20.7533 62.8883 20.6099 63.0816 20.5199C63.9849 20.0696 64.9303 19.7091 65.904 19.4437C66.2804 19.3495 66.623 19.1519 66.8931 18.8734C67.1632 18.5948 67.35 18.2462 67.4325 17.8671C67.667 16.7009 68.048 15.2604 68.6259 13.8534C68.6944 13.6587 68.8216 13.4902 68.99 13.3709C69.1584 13.2517 69.3597 13.1876 69.566 13.1876C69.7723 13.1876 69.9736 13.2517 70.142 13.3709C70.3104 13.4902 70.4376 13.6587 70.5061 13.8534C71.084 15.2604 71.465 16.7009 71.6974 17.8671C71.7801 18.2461 71.967 18.5945 72.2371 18.8731C72.5071 19.1517 72.8496 19.3493 73.2259 19.4437C74.078 19.6677 74.9993 20.0153 76.0357 20.5199C76.8941 20.9386 76.8941 22.132 76.0357 22.5508C75.1366 23.0014 74.1955 23.3625 73.2259 23.6291C72.8498 23.7233 72.5076 23.9206 72.2375 24.1988C71.9675 24.4769 71.7805 24.8249 71.6974 25.2036C71.4266 26.5767 71.027 27.9212 70.504 29.2194C70.4351 29.4133 70.3078 29.5811 70.1396 29.6998C69.9715 29.8185 69.7707 29.8822 69.5649 29.8822C69.3591 29.8822 69.1584 29.8185 68.9902 29.6998C68.8221 29.5811 68.6948 29.4133 68.6259 29.2194C68.103 27.9212 67.7034 26.5788 67.4325 25.2057Z" fill="url(#paint3_linear_0_1)"/>
</g>
<g filter="url(#filter2_ii_0_1)">
<path fill-rule="evenodd" clip-rule="evenodd" d="M43.8612 24.2782C43.7993 23.9944 43.6593 23.7335 43.4569 23.5252C43.2545 23.3169 42.9978 23.1694 42.7159 23.0994C41.9885 22.901 41.2823 22.6317 40.6075 22.2954C40.463 22.228 40.3408 22.1208 40.2552 21.9864C40.1695 21.8519 40.124 21.6958 40.124 21.5364C40.124 21.377 40.1695 21.2209 40.2552 21.0865C40.3408 20.952 40.463 20.8448 40.6075 20.7775C41.3843 20.4006 42.0773 20.1389 42.7159 19.9714C42.9975 19.9015 43.254 19.7544 43.4564 19.5464C43.6588 19.3385 43.799 19.0781 43.8612 18.7947C44.0329 17.9216 44.3197 16.8475 44.751 15.7922C44.8025 15.6471 44.8977 15.5215 45.0235 15.4327C45.1493 15.3438 45.2995 15.2961 45.4535 15.2961C45.6075 15.2961 45.7577 15.3438 45.8834 15.4327C46.0092 15.5215 46.1044 15.6471 46.1559 15.7922C46.5872 16.8454 46.872 17.9216 47.0458 18.7947C47.108 19.0777 47.2479 19.3378 47.4499 19.5457C47.6519 19.7536 47.9078 19.901 48.1889 19.9714C48.8275 20.1389 49.5143 20.3985 50.289 20.7775C50.4334 20.8448 50.5557 20.952 50.6413 21.0865C50.7269 21.2209 50.7724 21.377 50.7724 21.5364C50.7724 21.6958 50.7269 21.8519 50.6413 21.9864C50.5557 22.1208 50.4334 22.228 50.289 22.2954C49.617 22.6317 48.9136 22.901 48.1889 23.0994C47.9075 23.17 47.6514 23.3177 47.4494 23.5259C47.2474 23.7342 47.1076 23.9948 47.0458 24.2782C46.872 25.1513 46.5872 26.2254 46.1559 27.2785C46.1044 27.4237 46.0092 27.5493 45.8834 27.6381C45.7577 27.7269 45.6075 27.7746 45.4535 27.7746C45.2995 27.7746 45.1493 27.7269 45.0235 27.6381C44.8977 27.5493 44.8025 27.4237 44.751 27.2785C44.3609 26.3086 44.063 25.304 43.8612 24.2782Z" fill="url(#paint4_linear_0_1)"/>
</g>
<g filter="url(#filter3_ii_0_1)">
<path fill-rule="evenodd" clip-rule="evenodd" d="M63.8816 47.2445C63.82 46.9609 63.6803 46.7003 63.4782 46.492C63.2762 46.2837 63.02 46.136 62.7384 46.0657C62.0102 45.8669 61.3033 45.5969 60.6279 45.2596C60.4841 45.192 60.3624 45.0848 60.2772 44.9506C60.192 44.8164 60.1467 44.6607 60.1467 44.5017C60.1467 44.3427 60.192 44.187 60.2772 44.0528C60.3624 43.9186 60.4841 43.8114 60.6279 43.7437C61.4068 43.3669 62.0978 43.1051 62.7384 42.9376C63.02 42.8673 63.2762 42.7197 63.4782 42.5114C63.6803 42.3031 63.82 42.0424 63.8816 41.7589C64.0554 40.8879 64.3423 39.8117 64.7715 38.7585C64.8225 38.6127 64.9177 38.4863 65.0437 38.3969C65.1697 38.3075 65.3204 38.2595 65.475 38.2595C65.6295 38.2595 65.7802 38.3075 65.9062 38.3969C66.0323 38.4863 66.1274 38.6127 66.1785 38.7585C66.6098 39.8117 66.8945 40.8879 67.0683 41.7589C67.1302 42.0423 67.27 42.3028 67.472 42.5111C67.674 42.7194 67.9301 42.8671 68.2115 42.9376C68.848 43.1051 69.5348 43.3648 70.3094 43.7416C70.4545 43.8088 70.5773 43.916 70.6634 44.0507C70.7494 44.1854 70.7952 44.3418 70.7952 44.5017C70.7952 44.6615 70.7494 44.818 70.6634 44.9527C70.5773 45.0873 70.4545 45.1946 70.3094 45.2617C69.6381 45.5976 68.9354 45.8669 68.2115 46.0657C67.9301 46.1362 67.674 46.284 67.472 46.4922C67.27 46.7005 67.1302 46.961 67.0683 47.2445C66.8655 48.2701 66.5676 49.2745 66.1785 50.2448C66.1274 50.3907 66.0323 50.517 65.9062 50.6065C65.7802 50.6959 65.6295 50.7439 65.475 50.7439C65.3204 50.7439 65.1697 50.6959 65.0437 50.6065C64.9177 50.517 64.8225 50.3907 64.7715 50.2448C64.3814 49.2749 64.0834 48.2703 63.8816 47.2445Z" fill="url(#paint5_linear_0_1)"/>
</g>
<path d="M74.212 38.7166C75.6482 38.7166 76.8124 37.5524 76.8124 36.1162C76.8124 34.68 75.6482 33.5157 74.212 33.5157C72.7758 33.5157 71.6116 34.68 71.6116 36.1162C71.6116 37.5524 72.7758 38.7166 74.212 38.7166Z" fill="url(#paint6_radial_0_1)"/>
<path d="M74.212 38.7166C75.6482 38.7166 76.8124 37.5524 76.8124 36.1162C76.8124 34.68 75.6482 33.5157 74.212 33.5157C72.7758 33.5157 71.6116 34.68 71.6116 36.1162C71.6116 37.5524 72.7758 38.7166 74.212 38.7166Z" fill="url(#paint7_radial_0_1)"/>
<path d="M53.8294 55.8268C55.2656 55.8268 56.4299 54.6625 56.4299 53.2264C56.4299 51.7902 55.2656 50.6259 53.8294 50.6259C52.3933 50.6259 51.229 51.7902 51.229 53.2264C51.229 54.6625 52.3933 55.8268 53.8294 55.8268Z" fill="url(#paint8_radial_0_1)"/>
<path d="M53.8294 55.8268C55.2656 55.8268 56.4299 54.6625 56.4299 53.2264C56.4299 51.7902 55.2656 50.6259 53.8294 50.6259C52.3933 50.6259 51.229 51.7902 51.229 53.2264C51.229 54.6625 52.3933 55.8268 53.8294 55.8268Z" fill="url(#paint9_radial_0_1)"/>
<path d="M39.2359 39.0559C40.6154 39.0559 41.7337 37.9375 41.7337 36.558C41.7337 35.1785 40.6154 34.0602 39.2359 34.0602C37.8564 34.0602 36.738 35.1785 36.738 36.558C36.738 37.9375 37.8564 39.0559 39.2359 39.0559Z" fill="url(#paint10_radial_0_1)"/>
<path d="M39.2359 39.0559C40.6154 39.0559 41.7337 37.9375 41.7337 36.558C41.7337 35.1785 40.6154 34.0602 39.2359 34.0602C37.8564 34.0602 36.738 35.1785 36.738 36.558C36.738 37.9375 37.8564 39.0559 39.2359 39.0559Z" fill="url(#paint11_radial_0_1)"/>
<path d="M53.8713 17.3813C55.023 17.3813 55.9566 16.4477 55.9566 15.2959C55.9566 14.1442 55.023 13.2106 53.8713 13.2106C52.7195 13.2106 51.7859 14.1442 51.7859 15.2959C51.7859 16.4477 52.7195 17.3813 53.8713 17.3813Z" fill="url(#paint12_radial_0_1)"/>
<path d="M53.8713 17.3813C55.023 17.3813 55.9566 16.4477 55.9566 15.2959C55.9566 14.1442 55.023 13.2106 53.8713 13.2106C52.7195 13.2106 51.7859 14.1442 51.7859 15.2959C51.7859 16.4477 52.7195 17.3813 53.8713 17.3813Z" fill="url(#paint13_radial_0_1)"/>
<g filter="url(#filter4_f_0_1)">
<path d="M54.468 34.6276L22.7351 66.4944" stroke="url(#paint14_linear_0_1)" stroke-width="0.5"/>
</g>
<path d="M52.1062 33.6833L55.7116 30.059C56.2655 29.5023 57.0179 29.1885 57.8032 29.1865C58.5885 29.1846 59.3425 29.4946 59.8991 30.0486C60.4558 30.6025 60.7697 31.3548 60.7716 32.1401C60.7736 32.9254 60.4635 33.6794 59.9096 34.2361L56.3209 37.8415L52.1062 33.6833Z" fill="#CFC9D8"/>
<path d="M52.1062 33.6833L55.7116 30.059C56.2655 29.5023 57.0179 29.1885 57.8032 29.1865C58.5885 29.1846 59.3425 29.4946 59.8991 30.0486C60.4558 30.6025 60.7697 31.3548 60.7716 32.1401C60.7736 32.9254 60.4635 33.6794 59.9096 34.2361L56.3209 37.8415L52.1062 33.6833Z" fill="url(#paint15_linear_0_1)"/>
<path d="M52.1062 33.6833L55.7116 30.059C56.2655 29.5023 57.0179 29.1885 57.8032 29.1865C58.5885 29.1846 59.3425 29.4946 59.8991 30.0486C60.4558 30.6025 60.7697 31.3548 60.7716 32.1401C60.7736 32.9254 60.4635 33.6794 59.9096 34.2361L56.3209 37.8415L52.1062 33.6833Z" fill="url(#paint16_linear_0_1)"/>
<path d="M52.1062 33.6833L55.7116 30.059C56.2655 29.5023 57.0179 29.1885 57.8032 29.1865C58.5885 29.1846 59.3425 29.4946 59.8991 30.0486C60.4558 30.6025 60.7697 31.3548 60.7716 32.1401C60.7736 32.9254 60.4635 33.6794 59.9096 34.2361L56.3209 37.8415L52.1062 33.6833Z" fill="url(#paint17_radial_0_1)"/>
<g filter="url(#filter5_i_0_1)">
<path d="M19.5234 70.6086C20.6812 71.7665 22.5593 71.7644 23.7172 70.6045L27.2556 67.0493L23.0534 62.8743L19.5192 66.4274C18.9663 66.983 18.6562 67.7351 18.657 68.5189C18.6578 69.3027 18.9693 70.0542 19.5234 70.6086Z" fill="#CFC6DD"/>
<path d="M19.5234 70.6086C20.6812 71.7665 22.5593 71.7644 23.7172 70.6045L27.2556 67.0493L23.0534 62.8743L19.5192 66.4274C18.9663 66.983 18.6562 67.7351 18.657 68.5189C18.6578 69.3027 18.9693 70.0542 19.5234 70.6086Z" fill="url(#paint18_linear_0_1)"/>
</g>
<path d="M19.5234 70.6086C20.6812 71.7665 22.5593 71.7644 23.7172 70.6045L27.2556 67.0493L23.0534 62.8743L19.5192 66.4274C18.9663 66.983 18.6562 67.7351 18.657 68.5189C18.6578 69.3027 18.9693 70.0542 19.5234 70.6086Z" fill="url(#paint19_linear_0_1)"/>
<path d="M19.5234 70.6086C20.6812 71.7665 22.5593 71.7644 23.7172 70.6045L27.2556 67.0493L23.0534 62.8743L19.5192 66.4274C18.9663 66.983 18.6562 67.7351 18.657 68.5189C18.6578 69.3027 18.9693 70.0542 19.5234 70.6086Z" fill="url(#paint20_radial_0_1)"/>
<defs>
<filter id="filter0_bd_0_1" x="0" y="-4" width="96" height="97" filterUnits="userSpaceOnUse" color-interpolation-filters="sRGB">
<feFlood flood-opacity="0" result="BackgroundImageFix"/>
<feGaussianBlur in="BackgroundImageFix" stdDeviation="2"/>
<feComposite in2="SourceAlpha" operator="in" result="effect1_backgroundBlur_0_1"/>
<feColorMatrix in="SourceAlpha" type="matrix" values="0 0 0 0 0 0 0 0 0 0 0 0 0 0 0 0 0 0 127 0" result="hardAlpha"/>
<feOffset dy="4"/>
<feGaussianBlur stdDeviation="2"/>
<feComposite in2="hardAlpha" operator="out"/>
<feColorMatrix type="matrix" values="0 0 0 0 0 0 0 0 0 0 0 0 0 0 0 0 0 0 0.3 0"/>
<feBlend mode="normal" in2="effect1_backgroundBlur_0_1" result="effect2_dropShadow_0_1"/>
<feBlend mode="normal" in="SourceGraphic" in2="effect2_dropShadow_0_1" result="shape"/>
</filter>
<filter id="filter1_ii_0_1" x="62.2843" y="13.0376" width="14.5451" height="16.9946" filterUnits="userSpaceOnUse" color-interpolation-filters="sRGB">
<feFlood flood-opacity="0" result="BackgroundImageFix"/>
<feBlend mode="normal" in="SourceGraphic" in2="BackgroundImageFix" result="shape"/>
<feColorMatrix in="SourceAlpha" type="matrix" values="0 0 0 0 0 0 0 0 0 0 0 0 0 0 0 0 0 0 127 0" result="hardAlpha"/>
<feOffset dx="0.15" dy="-0.15"/>
<feGaussianBlur stdDeviation="0.375"/>
<feComposite in2="hardAlpha" operator="arithmetic" k2="-1" k3="1"/>
<feColorMatrix type="matrix" values="0 0 0 0 0.94902 0 0 0 0 0.513726 0 0 0 0 0.392157 0 0 0 1 0"/>
<feBlend mode="normal" in2="shape" result="effect1_innerShadow_0_1"/>
<feColorMatrix in="SourceAlpha" type="matrix" values="0 0 0 0 0 0 0 0 0 0 0 0 0 0 0 0 0 0 127 0" result="hardAlpha"/>
<feOffset dx="-0.15" dy="0.15"/>
<feGaussianBlur stdDeviation="0.3"/>
<feComposite in2="hardAlpha" operator="arithmetic" k2="-1" k3="1"/>
<feColorMatrix type="matrix" values="0 0 0 0 1 0 0 0 0 0.823529 0 0 0 0 0.407843 0 0 0 1 0"/>
<feBlend mode="normal" in2="effect1_innerShadow_0_1" result="effect2_innerShadow_0_1"/>
</filter>
<filter id="filter2_ii_0_1" x="39.974" y="15.1461" width="10.9484" height="12.7785" filterUnits="userSpaceOnUse" color-interpolation-filters="sRGB">
<feFlood flood-opacity="0" result="BackgroundImageFix"/>
<feBlend mode="normal" in="SourceGraphic" in2="BackgroundImageFix" result="shape"/>
<feColorMatrix in="SourceAlpha" type="matrix" values="0 0 0 0 0 0 0 0 0 0 0 0 0 0 0 0 0 0 127 0" result="hardAlpha"/>
<feOffset dx="0.15" dy="-0.15"/>
<feGaussianBlur stdDeviation="0.375"/>
<feComposite in2="hardAlpha" operator="arithmetic" k2="-1" k3="1"/>
<feColorMatrix type="matrix" values="0 0 0 0 0.94902 0 0 0 0 0.513726 0 0 0 0 0.392157 0 0 0 1 0"/>
<feBlend mode="normal" in2="shape" result="effect1_innerShadow_0_1"/>
<feColorMatrix in="SourceAlpha" type="matrix" values="0 0 0 0 0 0 0 0 0 0 0 0 0 0 0 0 0 0 127 0" result="hardAlpha"/>
<feOffset dx="-0.15" dy="0.15"/>
<feGaussianBlur stdDeviation="0.3"/>
<feComposite in2="hardAlpha" operator="arithmetic" k2="-1" k3="1"/>
<feColorMatrix type="matrix" values="0 0 0 0 1 0 0 0 0 0.823529 0 0 0 0 0.407843 0 0 0 1 0"/>
<feBlend mode="normal" in2="effect1_innerShadow_0_1" result="effect2_innerShadow_0_1"/>
</filter>
<filter id="filter3_ii_0_1" x="59.9967" y="38.1095" width="10.9484" height="12.7844" filterUnits="userSpaceOnUse" color-interpolation-filters="sRGB">
<feFlood flood-opacity="0" result="BackgroundImageFix"/>
<feBlend mode="normal" in="SourceGraphic" in2="BackgroundImageFix" result="shape"/>
<feColorMatrix in="SourceAlpha" type="matrix" values="0 0 0 0 0 0 0 0 0 0 0 0 0 0 0 0 0 0 127 0" result="hardAlpha"/>
<feOffset dx="0.15" dy="-0.15"/>
<feGaussianBlur stdDeviation="0.375"/>
<feComposite in2="hardAlpha" operator="arithmetic" k2="-1" k3="1"/>
<feColorMatrix type="matrix" values="0 0 0 0 0.94902 0 0 0 0 0.513726 0 0 0 0 0.392157 0 0 0 1 0"/>
<feBlend mode="normal" in2="shape" result="effect1_innerShadow_0_1"/>
<feColorMatrix in="SourceAlpha" type="matrix" values="0 0 0 0 0 0 0 0 0 0 0 0 0 0 0 0 0 0 127 0" result="hardAlpha"/>
<feOffset dx="-0.15" dy="0.15"/>
<feGaussianBlur stdDeviation="0.3"/>
<feComposite in2="hardAlpha" operator="arithmetic" k2="-1" k3="1"/>
<feColorMatrix type="matrix" values="0 0 0 0 1 0 0 0 0 0.823529 0 0 0 0 0.407843 0 0 0 1 0"/>
<feBlend mode="normal" in2="effect1_innerShadow_0_1" result="effect2_innerShadow_0_1"/>
</filter>
<filter id="filter4_f_0_1" x="22.0579" y="33.9512" width="33.0872" height="33.2197" filterUnits="userSpaceOnUse" color-interpolation-filters="sRGB">
<feFlood flood-opacity="0" result="BackgroundImageFix"/>
<feBlend mode="normal" in="SourceGraphic" in2="BackgroundImageFix" result="shape"/>
<feGaussianBlur stdDeviation="0.25" result="effect1_foregroundBlur_0_1"/>
</filter>
<filter id="filter5_i_0_1" x="18.557" y="62.3743" width="8.69863" height="9.10138" filterUnits="userSpaceOnUse" color-interpolation-filters="sRGB">
<feFlood flood-opacity="0" result="BackgroundImageFix"/>
<feBlend mode="normal" in="SourceGraphic" in2="BackgroundImageFix" result="shape"/>
<feColorMatrix in="SourceAlpha" type="matrix" values="0 0 0 0 0 0 0 0 0 0 0 0 0 0 0 0 0 0 127 0" result="hardAlpha"/>
<feOffset dx="-0.1" dy="-0.5"/>
<feGaussianBlur stdDeviation="0.5"/>
<feComposite in2="hardAlpha" operator="arithmetic" k2="-1" k3="1"/>
<feColorMatrix type="matrix" values="0 0 0 0 0.698039 0 0 0 0 0.619608 0 0 0 0 0.792157 0 0 0 1 0"/>
<feBlend mode="normal" in2="shape" result="effect1_innerShadow_0_1"/>
</filter>
<linearGradient id="paint0_linear_0_1" x1="4" y1="0" x2="109.135" y2="40.3286" gradientUnits="userSpaceOnUse">
<stop stop-color="white"/>
<stop offset="1" stop-color="#999999"/>
</linearGradient>
<linearGradient id="paint1_linear_0_1" x1="54.2712" y1="36.2628" x2="24.8289" y2="66.3605" gradientUnits="userSpaceOnUse">
<stop stop-color="#60105F"/>
<stop offset="1" stop-color="#54155E"/>
</linearGradient>
<linearGradient id="paint2_linear_0_1" x1="25.5157" y1="59.3925" x2="28.5914" y2="62.4347" gradientUnits="userSpaceOnUse">
<stop stop-color="#523253"/>
<stop offset="1" stop-color="#523253" stop-opacity="0"/>
</linearGradient>
<linearGradient id="paint3_linear_0_1" x1="74.6789" y1="17.6095" x2="66.3793" y2="25.9155" gradientUnits="userSpaceOnUse">
<stop stop-color="#FFD459"/>
<stop offset="1" stop-color="#FFA271"/>
</linearGradient>
<linearGradient id="paint4_linear_0_1" x1="49.2756" y1="18.5999" x2="43.0718" y2="24.81" gradientUnits="userSpaceOnUse">
<stop stop-color="#FFD465"/>
<stop offset="1" stop-color="#FFAF36"/>
</linearGradient>
<linearGradient id="paint5_linear_0_1" x1="69.2961" y1="41.5662" x2="63.0923" y2="47.7763" gradientUnits="userSpaceOnUse">
<stop stop-color="#FFD465"/>
<stop offset="1" stop-color="#FFAF36"/>
</linearGradient>
<radialGradient id="paint6_radial_0_1" cx="0" cy="0" r="1" gradientUnits="userSpaceOnUse" gradientTransform="translate(75.3636 35.0944) rotate(127.823) scale(3.92524 3.67125)">
<stop stop-color="#FFD463"/>
<stop offset="1" stop-color="#E68F2B"/>
</radialGradient>
<radialGradient id="paint7_radial_0_1" cx="0" cy="0" r="1" gradientUnits="userSpaceOnUse" gradientTransform="translate(74.212 34.3993) rotate(90) scale(4.31735 3.76356)">
<stop offset="0.797" stop-color="#E37A42" stop-opacity="0"/>
<stop offset="1" stop-color="#E37A42"/>
</radialGradient>
<radialGradient id="paint8_radial_0_1" cx="0" cy="0" r="1" gradientUnits="userSpaceOnUse" gradientTransform="translate(54.9831 52.2025) rotate(127.823) scale(3.92523 3.67125)">
<stop stop-color="#FFD463"/>
<stop offset="1" stop-color="#E68F2B"/>
</radialGradient>
<radialGradient id="paint9_radial_0_1" cx="0" cy="0" r="1" gradientUnits="userSpaceOnUse" gradientTransform="translate(53.8294 51.5095) rotate(90) scale(4.31735 3.76356)">
<stop offset="0.797" stop-color="#E37A42" stop-opacity="0"/>
<stop offset="1" stop-color="#E37A42"/>
</radialGradient>
<radialGradient id="paint10_radial_0_1" cx="0" cy="0" r="1" gradientUnits="userSpaceOnUse" gradientTransform="translate(40.3421 35.5773) rotate(127.823) scale(3.77095 3.52694)">
<stop stop-color="#FFD463"/>
<stop offset="1" stop-color="#E68F2B"/>
</radialGradient>
<radialGradient id="paint11_radial_0_1" cx="0" cy="0" r="1" gradientUnits="userSpaceOnUse" gradientTransform="translate(39.2359 34.9081) rotate(90) scale(4.14763 3.61561)">
<stop offset="0.797" stop-color="#E37A42" stop-opacity="0"/>
<stop offset="1" stop-color="#E37A42"/>
</radialGradient>
<radialGradient id="paint12_radial_0_1" cx="0" cy="0" r="1" gradientUnits="userSpaceOnUse" gradientTransform="translate(54.7946 14.4752) rotate(127.823) scale(3.14761 2.94394)">
<stop stop-color="#FFD463"/>
<stop offset="1" stop-color="#E68F2B"/>
</radialGradient>
<radialGradient id="paint13_radial_0_1" cx="0" cy="0" r="1" gradientUnits="userSpaceOnUse" gradientTransform="translate(53.8713 13.9204) rotate(90) scale(3.46202 3.01795)">
<stop offset="0.869" stop-color="#E37A42" stop-opacity="0"/>
<stop offset="1" stop-color="#E37A42"/>
</radialGradient>
<linearGradient id="paint14_linear_0_1" x1="52.8328" y1="36.9181" x2="22.7351" y2="66.4923" gradientUnits="userSpaceOnUse">
<stop stop-color="#692167"/>
<stop offset="1" stop-color="#5B2460"/>
</linearGradient>
<linearGradient id="paint15_linear_0_1" x1="53.4609" y1="32.0753" x2="55.5588" y2="34.0602" gradientUnits="userSpaceOnUse">
<stop stop-color="#C1BFC3"/>
<stop offset="1" stop-color="#C1BFC3" stop-opacity="0"/>
</linearGradient>
<linearGradient id="paint16_linear_0_1" x1="58.8523" y1="35.9697" x2="57.5437" y2="34.5962" gradientUnits="userSpaceOnUse">
<stop stop-color="#B0A1BF"/>
<stop offset="1" stop-color="#B0A1BF" stop-opacity="0"/>
</linearGradient>
<radialGradient id="paint17_radial_0_1" cx="0" cy="0" r="1" gradientUnits="userSpaceOnUse" gradientTransform="translate(59.6374 30.1784) rotate(133.939) scale(2.49879 3.0189)">
<stop offset="0.21" stop-color="#ECE8F2"/>
<stop offset="1" stop-color="#ECE8F2" stop-opacity="0"/>
</radialGradient>
<linearGradient id="paint18_linear_0_1" x1="20.8739" y1="64.6624" x2="22.955" y2="66.7415" gradientUnits="userSpaceOnUse">
<stop stop-color="#A8A6AD"/>
<stop offset="1" stop-color="#A8A6AD" stop-opacity="0"/>
</linearGradient>
<linearGradient id="paint19_linear_0_1" x1="19.4627" y1="71.2682" x2="21.1" y2="69.2393" gradientUnits="userSpaceOnUse">
<stop stop-color="#968FA1"/>
<stop offset="1" stop-color="#968FA1" stop-opacity="0"/>
</linearGradient>
<radialGradient id="paint20_radial_0_1" cx="0" cy="0" r="1" gradientUnits="userSpaceOnUse" gradientTransform="translate(22.955 63.2198) rotate(98.4726) scale(10.1543 10.3661)">
<stop offset="0.661" stop-color="#8F6EAF" stop-opacity="0"/>
<stop offset="0.918" stop-color="#8F6EAF"/>
</radialGradient>
</defs>
</svg>
